<?xml version="1.0" encoding="UTF-8"?>
<!DOCTYPE svg PUBLIC "-//W3C//DTD SVG 1.1//EN" "http://www.w3.org/Graphics/SVG/1.1/DTD/svg11.dtd">
<!-- Creator: CorelDRAW 2017 -->
<svg xmlns="http://www.w3.org/2000/svg" xml:space="preserve" width="210mm" height="297mm" version="1.1" style="shape-rendering:geometricPrecision; text-rendering:geometricPrecision; image-rendering:optimizeQuality; fill-rule:evenodd; clip-rule:evenodd"
viewBox="0 0 21000 29700"
 xmlns:xlink="http://www.w3.org/1999/xlink">
 <defs>
  <style type="text/css">
   <![CDATA[
    .str0 {stroke:#373435;stroke-width:20;stroke-miterlimit:22.9256}
    .fil0 {fill:#373435}
    .fil1 {fill:#020202}
    .fil3 {fill:#2A2A2A}
    .fil5 {fill:#565656}
    .fil4 {fill:#BBBBBB}
    .fil2 {fill:#ECECEC}
   ]]>
  </style>
 </defs>
 <g id="Camada_x0020_1">
  <metadata id="CorelCorpID_0Corel-Layer"/>
  <path class="fil0 str0" d="M11924.45 16621.16c-24.06,-100.25 117.63,-305.7 -83.2,-371.68 -104.51,-34.35 -286.51,-145.51 -329.42,-20.76 -102.79,298.87 -94.84,246.75 216.48,329.45 34.49,9.18 198.69,73.55 196.14,62.99z"/>
  <path class="fil1" d="M9223.93 16456.04c-196.71,93.81 -471.83,332.03 -822.82,195.92 -697.16,-270.38 140.38,-1589.8 857.12,-1043.92 187.73,142.99 108.86,187.91 238.91,255.66 4.13,2.16 12.86,5.52 16.27,7.15 3.47,1.66 11.56,3.63 16.61,6.85 -239.8,579.56 425.76,854.43 625.25,-286.79 3.93,-22.54 5.49,-38.73 11.67,-60.88l13.61 -37.12c1.58,-4.41 4.35,-12.39 7.9,-17.82 7.51,414.2 -50.07,673.4 -243.82,913.11 -69.47,85.92 -195.69,218.87 -330.34,250.86 -81.78,19.44 -183.99,15.14 -243.34,-19.32 -48.21,-27.94 -69.23,-74.24 -96.51,-108.89l-36.67 -41.34c-2.97,-3.21 -8.85,-9.39 -13.84,-13.47zm2494.57 187.24c-122.78,-59.8 -234.14,-83.64 -298.57,-191.42 -136.75,-228.77 251.66,-479.55 483.64,-294.36 119.16,95.14 119.13,187.93 170.22,342.23 134.48,-7.68 151.31,-40.61 259.65,-72.02 -18.19,-135.29 -94.7,-228.54 -99.44,-409.6 -3.91,-148.59 36.26,-284.71 92.4,-393.74 88.68,-172.15 314.78,-422.13 622.03,-346.78 337.41,82.78 299.95,554.03 -115.44,923.07 -84.36,74.96 -223.55,154.42 -274.7,240.36 268.88,344.92 1072.25,-36.38 1107.45,-945.67 -748.97,-300.4 -292.33,-648.23 -92.01,-562.73 127.39,54.33 64.82,203.78 135.65,308.24 190.48,126.86 484.56,-248.17 569.33,-263.19 6.19,138.47 -161.2,665.5 157.6,829.72 200.24,103.1 425.46,-73.4 502.36,-274.92 10.42,-27.25 54.86,-209.97 69.17,-134.51 103.46,119.63 -30.5,390.56 -83.67,477.44 -70.69,115.46 -198.91,241.02 -375,250.44 -450.24,24.12 -449.02,-536.01 -431.77,-824.43 -90.79,30.52 -95.62,55.61 -197.69,104.95 -202.48,97.86 -214.54,25.45 -219.92,212.33 -20.13,698.88 -551.93,1191.48 -1060.96,1001.72 -71.06,-26.48 -179.98,-109.31 -207.42,-113.83 -4.96,-0.8 -345.53,70.39 -405.19,195.5 -53.37,111.88 -99.41,323.71 -313.46,362.38 -394.82,71.39 -560.6,-376.72 -593.42,-735.03 -57.44,4.55 -710.55,454.04 -687.07,-170.32 6.9,-183.88 80.5,-332.64 149.64,-448.02 71.06,-118.6 216.82,-267.05 244.96,-374.64 -110.98,15.72 -227.19,62.95 -358.65,75.71 -237.08,23.01 -515.99,-47.63 -647.84,-201.52 -83.31,-97.19 -58.99,-229.07 69.28,-265.8 358.23,-102.57 258.73,323.11 488.69,359.09 252.69,39.56 453.67,-133.84 708.52,-160.15 -6.01,154.52 -88.1,219.36 -147.62,313.18 -54.39,85.69 -111.63,194.36 -151.19,294.85 -112.06,284.71 -15.2,578.9 312.98,431.22 19.68,-559.91 111.56,-1673.6 758.73,-1782.35 282.41,-47.43 338.44,291.06 300.46,560.77 -55.64,394.99 -474.69,814.81 -678.03,1015.11 -194.17,191.28 -300.74,182.52 -213.19,576.45 73.02,328.62 368.32,342.85 449.49,90.27zm-3963.07 -1200.35l78.01 113.72c35.84,39.75 37.7,37.5 71.08,89.32 154.38,239.71 107.5,591.62 -27.89,786.31 -158.66,228.13 -545.24,472.72 -984.2,338.52 -237.86,-72.74 -689.15,-518.74 -367.24,-774.73 270.79,-215.37 675.57,95.15 445.09,279.72 -74.25,59.44 -186.3,34.99 -277.78,74.44 -11.81,189.28 198.85,255.6 405.8,215.01 353.29,-69.31 605.06,-382.32 613.66,-734.34 8.54,-350.02 -147.54,-336.82 -192.67,-483.09 899.92,-175.73 803.11,-849.77 426.06,-794.27 -655.71,96.5 -1261.92,1595.73 -1960.69,1602.35 -243.48,2.3 -459.36,-188.29 -444.55,-442.34 18.85,-323.4 528.3,-384.81 415.08,-83.11 -38.06,101.47 -165.64,162.98 -186.48,259.9 -29.97,139.28 246.45,392.1 784.09,-172.27 392.47,-411.98 860.84,-1145.21 1392.22,-1278.69 646.15,-162.29 1011.84,365.44 500.83,777.97 -189.73,153.17 -378.57,218.07 -690.42,225.58zm4436.6 -1453.84c-46.49,21.45 -85.53,38.48 -131.74,55.16 -550.68,198.97 -1169.11,154.31 -1712.69,-39.03 -343.06,-122 -243.09,-33.38 -574.57,49.01 -489.63,121.68 -853.6,206.04 -1398.48,116.13 -430.81,-71.05 -848.39,-266.41 -1069.69,-493.9 112.27,44.33 238.69,155.44 553.61,283.52 203.32,82.69 421.05,131.46 684.77,131.32 406.49,-0.22 641.33,-10.34 998.78,-107.54 130.49,-35.48 276.53,-90.98 414.89,-145.43 244.01,-96.06 200.63,-48.98 419.72,12.51 288.23,80.89 625.75,152.63 959.44,157.32 587.08,8.23 738.77,-103.88 991.99,-111.78l-136.03 92.71zm-3249.75 -386.51c75.51,-57.38 157.57,-62.35 245.7,-107.73 106.34,-54.78 125.64,-76.26 229.15,-18.71 -86.13,121.84 -375.77,158.27 -474.85,126.44zm-705.87 -121.28c109.09,-37.48 349.02,-39.59 506.04,-82.45 73.02,-19.96 160.96,-50.07 223.64,-78.95 102.16,-47.08 118.37,-86.94 189.51,-0.61 -46.91,171.04 -652,213.85 -801.76,198.6 -128.52,-13.08 -109.45,-31.21 -117.43,-36.59zm-256.49 -232.32c730.21,0.03 898.43,-223.33 1018.02,-140.94 -19.93,60.05 -3.19,40.06 -57.74,73.05l-236.03 69.92c-113.75,30.21 -202.26,47.51 -332.89,63.7 -202.79,25.09 -613.52,25.62 -766.5,-43.85l375.14 -21.88zm5340.13 -3019.96c384.2,-163.59 572.08,268.05 530.99,720.59 -57.91,637.59 -689.68,1219.39 -843.31,676.09 -136.95,-484.31 -282.05,-1143.63 312.32,-1396.68zm-6165.81 75.52c246.01,-82.25 642.27,167.83 564.98,641.69 -32.46,199.13 -82.78,926.92 -306.58,965.4 -531.88,91.4 -917.39,-1386.75 -258.4,-1607.09zm2911.37 -2523.45c-320.55,238.02 -1050.59,322.16 -1511.53,225.16 -380.6,-80.09 -1090.26,-412.7 -1180.42,-666.34 387.03,216.46 646.99,380.02 1159.63,491.58 686.93,149.47 1238.74,-56.22 1532.32,-50.4zm2173.57 4977.07l-0.05 -44.97c-36.26,92.07 -148.01,255.69 -243.57,274.9 -26.48,5.35 -72.14,3.27 -98.14,-4.02 -58.22,-16.33 -39.7,-14.28 -68.03,-41.56 -141.58,-11.75 -297.49,-79.56 -404.72,-130.62 -8.62,-219.57 -18.52,-434 -159.43,-524.65 -15.27,333.75 -20.68,512.92 -211.6,702.35 -346.34,343.5 -945.64,385.42 -1371.76,201.95 -224.41,-96.61 -384.79,-203.84 -411.54,-483.2 -38.26,-399.7 114.36,-1239.1 207.56,-1574.82 213.1,-767.44 503.44,-1195.03 522.29,-1266.85 -270.16,87.24 -650.06,911.03 -774.79,1266.63 -230.48,657.24 -236.47,1066.62 -307.49,1719.64 -255.19,133.29 -759.57,177.98 -1072.69,152.59 -53.03,-4.3 -129.38,-12.15 -192.78,-19.22 -55.31,-6.15 -115.74,-11.67 -142.13,-43.46 -43.94,-90.88 120.62,-795.69 153.36,-952.79l457.19 -2966.38c242.91,-23.39 528.67,17.28 791.72,-6.9 1294.61,-118.95 2313.74,-641.96 3241.52,-1474.6 136.28,-122.32 314.04,-346.76 407.99,-378.22 -45.74,1602.43 -29.27,2812.57 256.88,4368.24 69.55,378.21 219.25,938.4 215.62,1353.82l-257.65 46.93c-3.58,-401.14 89.38,-728.63 -52.65,-1264.67 -62.45,81.37 -4.99,497.18 -14.94,759.21 -2.55,67.7 -27.66,693.22 -200.79,544.33 -38.37,-32.99 90.29,-549.9 74.49,-968.65 -3.77,5.18 -6.9,12.95 -8.51,17.22 -1.64,4.32 -5.99,12.28 -7.79,17.77 -1.86,5.6 -4.66,12.36 -6.41,18.76 -30.66,111.31 -58.55,700.21 -242.29,926.26l-171.88 -6.07c5.74,-90.48 80.9,-114.88 93.01,-218.95zm-5751.44 -6089.57c671.74,1211.33 1634.2,1493.79 1775.75,1630.68 -437.29,-10.45 -1073.4,-464.93 -1281.24,-671.65 -223.72,-222.59 -651.58,-822.8 -666.91,-1278.5 69.05,72.71 118.34,222 172.4,319.47zm-670.63 -572.05c9.7,25.25 12.17,53.56 17.35,81.23l103.16 387.78c148.12,467.59 466.48,927 810.07,1226.18 850.52,740.49 1568.81,714.6 1862.19,850.22 -733.75,22.34 -1616.68,-368.82 -2038.97,-696.91 -427.31,-332.03 -656.33,-735.64 -776.45,-1296.52 -24.56,-114.77 -28.53,-190.76 -43.19,-312.43 -11.64,-96.59 -38.59,-219.51 22.34,-311.05 31.8,35.71 10.04,-15.63 43.5,71.5zm5411.48 -365.85c-26.78,20.29 -12,13.36 -56.66,30.49 -151.39,58.05 -520.16,28.22 -686.13,-42.75 -302.23,-129.24 -205.51,-471.64 -135.23,-541.63 41.83,72.88 44.3,206.92 93.17,282.26 177.68,273.9 485.28,263.51 784.85,271.63zm-3421.54 3252.13c19.07,210.97 4.65,1234.75 -42.25,1373.75 -99.72,-65.84 -338.35,-469.83 -750.92,-279.19 -573.68,265.11 -469.14,1162.46 -220.78,1634.35 280.83,533.59 477.57,453.03 602.69,527.86 -14.25,182.19 -191.46,431.27 -252.86,593.89 -349.11,-34.35 -702.98,-443.5 -849.66,-475.33 54,419.19 461.13,961.75 464.98,1008.07 -39.97,132.1 -855.95,935.55 -1018.74,1140.36 -311.34,391.69 -646.26,849.11 -630.43,1559.82 23.2,1042.31 957.31,2344.81 1452.01,2898.18 947.14,1059.46 2360.64,2279.97 3861.97,2640.02 317.67,76.19 607.32,105.9 917.56,-20.45 218.06,-88.8 470.69,-339.52 492.43,-619.13 -169.61,87.05 -230.84,403.64 -614.36,389.53 -351.51,-12.92 -303.03,-405.69 -108.25,-585.94 139.41,-129.05 425.65,-255.63 626.33,-358.89 1293.33,-665.45 2869.57,-2090.88 3519.1,-3379.94 1082.64,-2148.51 -1361.28,-3742.43 -1397.76,-3992.15 -11.2,-76.82 425.23,-661.15 454.56,-981.93 -111.66,45.14 -522.15,527.62 -793.44,591.4 -103.15,-67.53 -281.8,-358.22 -310.24,-508.09 319.53,-95.06 454.62,-220.84 638.61,-557.61 123.78,-226.6 261.95,-628.99 233.04,-960.19 -28.47,-325.82 -223.97,-645.82 -513.95,-671.68 -461.49,-41.17 -590.65,367.79 -704.56,452.01l-44.74 26.72c-109.29,-383.45 -16.89,-1788.09 30.74,-2231.48 40.5,-377.1 79.34,-695.72 149.48,-1040 41.31,-202.71 251.69,-878.94 198.91,-931.5l-50.62 -10.39c-100.36,6.76 -123.26,96.83 -219.34,70.22l-13.09 -37.54c-65.67,-255.16 -61.43,-513.72 -419.99,-705.78 -287.65,-154.06 -626.78,-134.15 -986.86,-82.37 -323.44,46.52 -828.21,-7.98 -755.88,-373.91 78.23,-395.68 860.92,-29.58 893.66,-23.93 -135.92,-318.22 -663.81,-707.89 -1031.88,-871.95 -504.16,-224.74 -885.34,-333.14 -1512.53,-388.97 -1205.48,-107.29 -2282.58,330.39 -2892.44,892.69 -607.15,559.77 -1196.36,1596.52 -652.67,2741.1 212.19,446.71 528.84,736.86 904.86,998.72 626.28,436.07 1225.72,477.57 1347.31,549.65z"/>
  <path class="fil2" d="M10304.94 13179.54c258.45,-98.11 385.17,-94.95 566.92,-277.75 228.16,-229.43 220.78,-447.13 300.21,-566.45 94.39,185.77 -122.48,546.46 -207.92,635.42 -91.07,94.81 -460.66,323.85 -659.21,208.78zm-1668.83 -2395.18c-114.02,60.9 -253.96,-44.14 -280.63,-143.33 96.55,18.66 217.51,79.51 280.63,143.33zm-592.15 -302.15c81.31,-291.39 688.71,-718.2 1312.4,-322.71 332.03,210.49 -62.2,271.29 -62.32,271.4 -9.31,7.23 -42.36,123.47 -211.66,280.05 -106.28,-40.86 21.1,-36.48 -89.26,-35.43 -20.29,0.19 -500.25,200.1 -499.7,-406.94 -189.42,-2.57 -307.91,157.24 -449.46,213.63zm266.16 -969.2c72.89,-239.99 638.78,-421.93 985.25,-267.21l-39.47 162.95c-142.91,14.94 -336.63,-32.96 -525.73,-21.13 -194.94,12.2 -287.73,65.65 -420.05,125.39zm3744.38 -3.49c-86.17,-7.85 -143.11,-56.92 -227.27,-84.11 -364.08,-117.68 -570.67,-11.76 -812.24,-12.5l-43.88 -191.26c376.22,-193.06 954.86,41.03 1083.39,287.87zm278.13 -169.19c-66.42,-57.55 -66.59,-100.27 -90.84,-169.25 -76.74,-218.03 -203.46,-344.75 -180.67,-519.21 16.41,-125.52 185.63,-596.55 237.58,-674.76 25.56,62.93 -108.09,496.54 -100.44,671.91 10.57,241.68 140.31,385.48 134.37,691.31zm-503.24 3602.18c112.19,4.33 173.9,23.57 240.08,-41.22 24.42,-23.92 96.08,-124.56 109.25,-147.79 90.96,-160.59 103.76,-284.51 185.57,-323.96l-125.11 328.62c-12.11,104.07 -87.27,128.47 -93.01,218.95l171.88 6.07c183.74,-226.05 211.63,-814.95 242.29,-926.26 1.75,-6.4 4.55,-13.16 6.41,-18.76 1.8,-5.49 6.15,-13.45 7.79,-17.77 1.61,-4.27 4.74,-12.04 8.51,-17.22 15.8,418.75 -112.86,935.66 -74.49,968.65 173.13,148.89 198.24,-476.63 200.79,-544.33 9.95,-262.03 -47.51,-677.84 14.94,-759.21 142.03,536.04 49.07,863.53 52.65,1264.67l257.65 -46.93c3.63,-415.42 -146.07,-975.61 -215.62,-1353.82 -286.15,-1555.67 -302.62,-2765.81 -256.88,-4368.24 -93.95,31.46 -271.71,255.9 -407.99,378.22 -927.78,832.64 -1946.91,1355.65 -3241.52,1474.6 -263.05,24.18 -548.81,-16.49 -791.72,6.9l-457.19 2966.38c-32.74,157.1 -197.3,861.91 -153.36,952.79 26.39,31.79 86.82,37.31 142.13,43.46 63.4,7.07 139.75,14.92 192.78,19.22 313.12,25.39 817.5,-19.3 1072.69,-152.59 71.02,-653.02 77.01,-1062.4 307.49,-1719.64 124.73,-355.6 504.63,-1179.39 774.79,-1266.63 -18.85,71.82 -309.19,499.41 -522.29,1266.85 -93.2,335.72 -245.82,1175.12 -207.56,1574.82 26.75,279.36 187.13,386.59 411.54,483.2 426.12,183.47 1025.42,141.55 1371.76,-201.95 190.92,-189.43 196.33,-368.6 211.6,-702.35 140.91,90.65 150.81,305.08 159.43,524.65 107.23,51.06 263.14,118.87 404.72,130.62z"/>
  <path class="fil1" d="M5608.5 11087.2c15.61,150.67 104.71,435.65 148.51,603.32 143.29,548.59 228.15,899.56 470.64,1407.24 39.92,83.61 104.48,184.93 125.05,268.46 -307.96,393.1 -694.08,639.06 -1114.77,1272.9 -649.56,978.63 -544.32,1754.35 -90.48,2779.88 312.21,705.48 988.74,1576.46 1483.09,2108.37 700.07,753.33 1643.43,1503.72 2745.62,2040.64 461.02,224.58 1278.08,547.74 1905.94,379.44 664.86,-178.23 896.54,-673.6 967.95,-1450.96 147.09,-100.02 319.3,-200.35 468.39,-302.54 173.6,-118.95 309.11,-225.02 457.76,-338.6 312.87,-239.07 585.88,-479.59 857.5,-740.52 743.71,-714.43 1697.3,-1818.36 1817.98,-2960.77 177.89,-1684.18 -1577.21,-3039.72 -1578.12,-3186.85l228.15 -472.72c70.14,-168.13 127.94,-340.82 180.53,-525.03 55.31,-193.78 276.61,-985.11 275.25,-1122.39 -56.41,28.63 -291.86,306.94 -361.69,380.48 -99.13,104.38 -291.55,352.74 -396.79,404.67 80.73,-369.49 383.68,-849.64 88.55,-1477.21 -184.22,-391.69 -632.79,-631.21 -1015.44,-507.07 -38.59,12.53 -122.81,58.93 -150.51,31.16 -124.14,-231.24 98.94,-1874.84 149.23,-2196.31 54.5,-348.3 125.75,-646.76 226.82,-971.66 261.09,-839.32 -145.59,-678.98 -353.98,-692.51 -152.5,-298.12 -251.44,-442.61 -547.3,-589.51 -423.09,-210.08 -475.13,-32.24 -611.8,-260.45 -326.57,-545.16 -823.38,-900.15 -1477.27,-1174.6 -1678.53,-704.48 -4014.44,-305.64 -5056.94,1292.25 -724.61,1110.61 -499.83,2495.7 483.73,3354.79 716.48,625.83 1222.36,631.43 1546.16,797.82 7.12,139.25 31.68,357.54 -11.93,468.15l-97.72 18.02c-43.19,-0.06 -92.48,-9.9 -142.99,-9.46 -81.67,0.72 -156.63,17.58 -225.96,35.27 -873.95,222.88 -914.76,1493.48 -389.56,2283.85l110.75 192.86 -92.03 -46.82c-266.53,-172.21 -854.27,-1015.36 -1022.32,-1093.59zm7312.43 -1064.32c160.21,-1.66 434.91,-395.87 886.53,-138.36 238.14,135.78 410.1,396.9 415,782.05 8.96,703.81 -358.25,1340.73 -800.23,1567.33 18.33,94.37 68.09,137.2 113.97,222.64 335.58,-42.66 916.19,-891.38 1072.91,-932.58 -10.31,174.68 -157.83,619.29 -222.56,785.04 -152.97,391.77 -262.44,491.63 -346.17,681.69 111.06,235.23 1252.64,1123.87 1562.27,2330.59 312.18,1216.74 -412.48,2192.26 -919.3,2822.77 -556.14,691.9 -1252.3,1337.83 -2026.56,1871.01 -95.67,65.87 -547.16,339.85 -571.11,387.48 -72.91,145.07 55.36,1643.18 -1534.9,1377.6 -935.99,-156.32 -2007.48,-851.63 -2596.78,-1299.04 -723.44,-549.29 -1396.37,-1239.3 -1931.38,-1963.63 -432.83,-585.99 -1207.42,-1771.34 -1037.43,-2837.04 82.75,-518.58 396.73,-974.86 662.01,-1290.87 151.78,-180.77 301.87,-340.59 460.33,-501.6 733.45,-745.37 450.15,-313.77 111.11,-1243.35 -52.84,-144.85 -231.32,-716.18 -227.1,-866.96 85.16,45.77 636.72,815.62 1083.78,870.73 38.83,-98.14 98.13,-179.28 112.08,-300.51 -224.5,-152.58 -406.94,-314.12 -528.61,-565.15 -246.54,-508.65 -342.79,-1301.01 110.11,-1716.45 358.81,-329.1 794.38,-72.75 870.76,-67.15 54.72,-203.59 40.14,-660.32 24.45,-896.73 -78.48,-51.9 -308.3,-99.58 -418.19,-136.53 -940.37,-316.29 -1751.36,-930.67 -1994.68,-1980.07 -321.13,-1385.04 745.59,-2471.5 1564.48,-2884.04 1625.75,-819 4098.11,-511.28 4986.81,912.9 81.53,130.63 100.82,250.8 286.53,269.82 305.62,31.24 582.59,130.96 762.23,371.09 101.46,135.56 116.16,249.06 184.41,401.53 151.53,2.36 180.42,-115.24 346.39,-65.31 62.29,153.19 -122.92,707.91 -174.15,913.61 -222.86,894.8 -341.82,2181.2 -287.01,3117.49z"/>
  <path class="fil2" d="M7807.05 8982.82c-121.59,-72.08 -721.03,-113.58 -1347.31,-549.65 -376.02,-261.86 -692.67,-552.01 -904.86,-998.72 -543.69,-1144.58 45.52,-2181.33 652.67,-2741.1 609.86,-562.3 1686.96,-999.98 2892.44,-892.69 627.19,55.83 1008.37,164.23 1512.53,388.97 368.07,164.06 895.96,553.73 1031.88,871.95 -32.74,-5.65 -815.43,-371.75 -893.66,23.93 -72.33,365.93 432.44,420.43 755.88,373.91 360.08,-51.78 699.21,-71.69 986.86,82.37 358.56,192.06 354.32,450.62 419.99,705.78l13.09 37.54c96.08,26.61 118.98,-63.46 219.34,-70.22l50.62 10.39c52.78,52.56 -157.6,728.79 -198.91,931.5 -70.14,344.28 -108.98,662.9 -149.48,1040 -47.63,443.39 -140.03,1848.03 -30.74,2231.48l44.74 -26.72c113.91,-84.22 243.07,-493.18 704.56,-452.01 289.98,25.86 485.48,345.86 513.95,671.68 28.91,331.2 -109.26,733.59 -233.04,960.19 -183.99,336.77 -319.08,462.55 -638.61,557.61 28.44,149.87 207.09,440.56 310.24,508.09 271.29,-63.78 681.78,-546.26 793.44,-591.4 -29.33,320.78 -465.76,905.11 -454.56,981.93 36.48,249.72 2480.4,1843.64 1397.76,3992.15 -649.53,1289.06 -2225.77,2714.49 -3519.1,3379.94 -200.68,103.26 -486.92,229.84 -626.33,358.89 -194.78,180.25 -243.26,573.02 108.25,585.94 383.52,14.11 444.75,-302.48 614.36,-389.53 -21.74,279.61 -274.37,530.33 -492.43,619.13 -310.24,126.35 -599.89,96.64 -917.56,20.45 -1501.33,-360.05 -2914.83,-1580.56 -3861.97,-2640.02 -494.7,-553.37 -1428.81,-1855.87 -1452.01,-2898.18 -15.83,-710.71 319.09,-1168.13 630.43,-1559.82 162.79,-204.81 978.77,-1008.26 1018.74,-1140.36 -3.85,-46.32 -410.98,-588.88 -464.98,-1008.07 146.68,31.83 500.55,440.98 849.66,475.33 61.4,-162.62 238.61,-411.7 252.86,-593.89 -125.12,-74.83 -321.86,5.73 -602.69,-527.86 -248.36,-471.89 -352.9,-1369.24 220.78,-1634.35 412.57,-190.64 651.2,213.35 750.92,279.19 46.9,-139 61.32,-1162.78 42.25,-1373.75zm5113.88 1040.06c-54.81,-936.29 64.15,-2222.69 287.01,-3117.49 51.23,-205.7 236.44,-760.42 174.15,-913.61 -165.97,-49.93 -194.86,67.67 -346.39,65.31 -68.25,-152.47 -82.95,-265.97 -184.41,-401.53 -179.64,-240.13 -456.61,-339.85 -762.23,-371.09 -185.71,-19.02 -205,-139.19 -286.53,-269.82 -888.7,-1424.18 -3361.06,-1731.9 -4986.81,-912.9 -818.89,412.54 -1885.61,1499 -1564.48,2884.04 243.32,1049.4 1054.31,1663.78 1994.68,1980.07 109.89,36.95 339.71,84.63 418.19,136.53 15.69,236.41 30.27,693.14 -24.45,896.73 -76.38,-5.6 -511.95,-261.95 -870.76,67.15 -452.9,415.44 -356.65,1207.8 -110.11,1716.45 121.67,251.03 304.11,412.57 528.61,565.15 -13.95,121.23 -73.25,202.37 -112.08,300.51 -447.06,-55.11 -998.62,-824.96 -1083.78,-870.73 -4.22,150.78 174.26,722.11 227.1,866.96 339.04,929.58 622.34,497.98 -111.11,1243.35 -158.46,161.01 -308.55,320.83 -460.33,501.6 -265.28,316.01 -579.26,772.29 -662.01,1290.87 -169.99,1065.7 604.6,2251.05 1037.43,2837.04 535.01,724.33 1207.94,1414.34 1931.38,1963.63 589.3,447.41 1660.79,1142.72 2596.78,1299.04 1590.26,265.58 1461.99,-1232.53 1534.9,-1377.6 23.95,-47.63 475.44,-321.61 571.11,-387.48 774.26,-533.18 1470.42,-1179.11 2026.56,-1871.01 506.82,-630.51 1231.48,-1606.03 919.3,-2822.77 -309.63,-1206.72 -1451.21,-2095.36 -1562.27,-2330.59 83.73,-190.06 193.2,-289.92 346.17,-681.69 64.73,-165.75 212.25,-610.36 222.56,-785.04 -156.72,41.2 -737.33,889.92 -1072.91,932.58 -45.88,-85.44 -95.64,-128.27 -113.97,-222.64 441.98,-226.6 809.19,-863.52 800.23,-1567.33 -4.9,-385.15 -176.86,-646.27 -415,-782.05 -451.62,-257.51 -726.32,136.7 -886.53,138.36z"/>
  <path class="fil2" d="M11776.69 16543.75l-73.99 -9.98 -46.77 -14.27c-264.53,-57.58 -123.75,-303.64 9.04,-302.51 129.13,41.53 182.25,124.09 175.01,294.44 -41.78,48.57 -6.54,15.03 -63.29,32.32zm654.16 -212.63c-64.2,-140.6 -114.24,-292.63 -29.02,-468 42.8,-88.16 181.05,-254.47 328.31,-184.63 196.5,93.2 -7.29,630.24 -299.29,652.63zm-1208.86 -266.16c-23.5,-410.18 45.33,-824.88 256.24,-1148.17 71.11,-108.98 113,-180.36 287.12,-170.02 198.96,402.55 -333.86,1295.04 -543.36,1318.19zm496.51 578.32c-81.17,252.58 -376.47,238.35 -449.49,-90.27 -87.55,-393.93 19.02,-385.17 213.19,-576.45 203.34,-200.3 622.39,-620.12 678.03,-1015.11 37.98,-269.71 -18.05,-608.2 -300.46,-560.77 -647.17,108.75 -739.05,1222.44 -758.73,1782.35 -328.18,147.68 -425.04,-146.51 -312.98,-431.22 39.56,-100.49 96.8,-209.16 151.19,-294.85 59.52,-93.82 141.61,-158.66 147.62,-313.18 -254.85,26.31 -455.83,199.71 -708.52,160.15 -229.96,-35.98 -130.46,-461.66 -488.69,-359.09 -128.27,36.73 -152.59,168.61 -69.28,265.8 131.85,153.89 410.76,224.53 647.84,201.52 131.46,-12.76 247.67,-59.99 358.65,-75.71 -28.14,107.59 -173.9,256.04 -244.96,374.64 -69.14,115.38 -142.74,264.14 -149.64,448.02 -23.48,624.36 629.63,174.87 687.07,170.32 32.82,358.31 198.6,806.42 593.42,735.03 214.05,-38.67 260.09,-250.5 313.46,-362.38 59.66,-125.11 400.23,-196.3 405.19,-195.5 27.44,4.52 136.36,87.35 207.42,113.83 509.03,189.76 1040.83,-302.84 1060.96,-1001.72 5.38,-186.88 17.44,-114.47 219.92,-212.33 102.07,-49.34 106.9,-74.43 197.69,-104.95 -17.25,288.42 -18.47,848.55 431.77,824.43 176.09,-9.42 304.31,-134.98 375,-250.44 53.17,-86.88 187.13,-357.81 83.67,-477.44 -14.31,-75.46 -58.75,107.26 -69.17,134.51 -76.9,201.52 -302.12,378.02 -502.36,274.92 -318.8,-164.22 -151.41,-691.25 -157.6,-829.72 -84.77,15.02 -378.85,390.05 -569.33,263.19 -70.83,-104.46 -8.26,-253.91 -135.65,-308.24 -200.32,-85.5 -656.96,262.33 92.01,562.73 -35.2,909.29 -838.57,1290.59 -1107.45,945.67 51.15,-85.94 190.34,-165.4 274.7,-240.36 415.39,-369.04 452.85,-840.29 115.44,-923.07 -307.25,-75.35 -533.35,174.63 -622.03,346.78 -56.14,109.03 -96.31,245.15 -92.4,393.74 4.74,181.06 81.25,274.31 99.44,409.6 -108.34,31.41 -125.17,64.34 -259.65,72.02 -51.09,-154.3 -51.06,-247.09 -170.22,-342.23 -231.98,-185.19 -620.39,65.59 -483.64,294.36 64.43,107.78 175.79,131.62 298.57,191.42z"/>
  <path class="fil2" d="M7755.43 15442.93c311.85,-7.51 500.69,-72.41 690.42,-225.58 511.01,-412.53 145.32,-940.26 -500.83,-777.97 -531.38,133.48 -999.75,866.71 -1392.22,1278.69 -537.64,564.37 -814.06,311.55 -784.09,172.27 20.84,-96.92 148.42,-158.43 186.48,-259.9 113.22,-301.7 -396.23,-240.29 -415.08,83.11 -14.81,254.05 201.07,444.64 444.55,442.34 698.77,-6.62 1304.98,-1505.85 1960.69,-1602.35 377.05,-55.5 473.86,618.54 -426.06,794.27 45.13,146.27 201.21,133.07 192.67,483.09 -8.6,352.02 -260.37,665.03 -613.66,734.34 -206.95,40.59 -417.61,-25.73 -405.8,-215.01 91.48,-39.45 203.53,-15 277.78,-74.44 230.48,-184.57 -174.3,-495.09 -445.09,-279.72 -321.91,255.99 129.38,701.99 367.24,774.73 438.96,134.2 825.54,-110.39 984.2,-338.52 135.39,-194.69 182.27,-546.6 27.89,-786.31 -33.38,-51.82 -35.24,-49.57 -71.08,-89.32l-78.01 -113.72z"/>
  <path class="fil2" d="M13430.83 10592.49c78.26,32.46 109.94,31.94 181.27,74.8 -151.53,89.29 -352.63,-82.03 -356.45,501.3 68.11,22.12 428.5,27.67 236.8,384.73 -73.68,-37.54 -35.62,-103.71 -149.86,-144.74 -94.76,-34.01 -190.12,-6.01 -290.4,-13.86 0.59,-447.49 116.94,-989.24 546.02,-1016.77 -43.27,95.34 -15.3,38.14 -97.19,107.84 -56.39,47.99 -55.83,31.21 -70.19,106.7zm-110.78 -363.47c-594.37,253.05 -449.27,912.37 -312.32,1396.68 153.63,543.3 785.4,-38.5 843.31,-676.09 41.09,-452.54 -146.79,-884.18 -530.99,-720.59z"/>
  <path class="fil2" d="M8616.57 15733.87c526.89,-183.13 646.23,633.63 115.04,823.97 -522.95,187.37 -640.33,-641.41 -115.04,-823.97zm607.36 722.17c4.99,4.08 10.87,10.26 13.84,13.47l36.67 41.34c27.28,34.65 48.3,80.95 96.51,108.89 59.35,34.46 161.56,38.76 243.34,19.32 134.65,-31.99 260.87,-164.94 330.34,-250.86 193.75,-239.71 251.33,-498.91 243.82,-913.11 -3.55,5.43 -6.32,13.41 -7.9,17.82l-13.61 37.12c-6.18,22.15 -7.74,38.34 -11.67,60.88 -199.49,1141.22 -865.05,866.35 -625.25,286.79 -5.05,-3.22 -13.14,-5.19 -16.61,-6.85 -3.41,-1.63 -12.14,-4.99 -16.27,-7.15 -130.05,-67.75 -51.18,-112.67 -238.91,-255.66 -716.74,-545.88 -1554.28,773.54 -857.12,1043.92 350.99,136.11 626.11,-102.11 822.82,-195.92z"/>
  <path class="fil2" d="M7085.96 10479.22l107.42 -13.2c309.72,67.4 389.42,586.91 389.36,859.75 -0.05,329.68 -116.46,79.96 -327.81,188.35 -87.8,45.02 -59.02,85.66 -137.37,111.83 -88.15,-545.1 262.12,-194.28 279.14,-465.82 25.84,-412.03 -226.24,-365.93 -331.75,-398.64 71.69,-81.12 99.74,-38.32 186.65,-94.48 -37.7,-120.34 -98.5,-98.42 -165.64,-187.79zm68.28 -174.68c-658.99,220.34 -273.48,1698.49 258.4,1607.09 223.8,-38.48 274.12,-766.27 306.58,-965.4 77.29,-473.86 -318.97,-723.94 -564.98,-641.69z"/>
  <path class="fil2" d="M8609.88 8641.95c-293.38,-135.62 -1011.67,-109.73 -1862.19,-850.22 -343.59,-299.18 -661.95,-758.59 -810.07,-1226.18l-103.16 -387.78c-5.18,-27.67 -7.65,-55.98 -17.35,-81.23 -33.46,-87.13 -11.7,-35.79 -43.5,-71.5 -60.93,91.54 -33.98,214.46 -22.34,311.05 14.66,121.67 18.63,197.66 43.19,312.43 120.12,560.88 349.14,964.49 776.45,1296.52 422.29,328.09 1305.22,719.25 2038.97,696.91z"/>
  <path class="fil2" d="M12328.06 13896.38c-253.22,7.9 -404.91,120.01 -991.99,111.78 -333.69,-4.69 -671.21,-76.43 -959.44,-157.32 -219.09,-61.49 -175.71,-108.57 -419.72,-12.51 -138.36,54.45 -284.4,109.95 -414.89,145.43 -357.45,97.2 -592.29,107.32 -998.78,107.54 -263.72,0.14 -481.45,-48.63 -684.77,-131.32 -314.92,-128.08 -441.34,-239.19 -553.61,-283.52 221.3,227.49 638.88,422.85 1069.69,493.9 544.88,89.91 908.85,5.55 1398.48,-116.13 331.48,-82.39 231.51,-171.01 574.57,-49.01 543.58,193.34 1162.01,238 1712.69,39.03 46.21,-16.68 85.25,-33.71 131.74,-55.16l136.03 -92.71z"/>
  <path class="fil1" d="M9409.9 18318.43c158.01,-52.18 1068.47,-1004.13 755.62,-1271.29 -211.71,-180.81 -468.12,88.49 -589.98,377.94 -92.71,220.19 -191.32,597.99 -165.64,893.35z"/>
  <path class="fil1" d="M8616.57 15733.87c-525.29,182.56 -407.91,1011.34 115.04,823.97 531.19,-190.34 411.85,-1007.1 -115.04,-823.97z"/>
  <path class="fil1" d="M8608.11 10516.7c277.61,12.78 190.45,127.24 411.59,-75.91 52.18,-47.9 -4.32,-13.27 84.97,-51.17 -35.59,341.46 -427.36,306.19 -496.56,127.08zm-564.15 -34.49c141.55,-56.39 260.04,-216.2 449.46,-213.63 -0.55,607.04 479.41,407.13 499.7,406.94 110.36,-1.05 -17.02,-5.43 89.26,35.43 169.3,-156.58 202.35,-272.82 211.66,-280.05 0.12,-0.11 394.35,-60.91 62.32,-271.4 -623.69,-395.49 -1231.09,31.32 -1312.4,322.71z"/>
  <path class="fil1" d="M11221.99 16064.96c209.5,-23.15 742.32,-915.64 543.36,-1318.19 -174.12,-10.34 -216.01,61.04 -287.12,170.02 -210.91,323.29 -279.74,737.99 -256.24,1148.17z"/>
  <path class="fil2" d="M8263.49 8299.27c-141.55,-136.89 -1104.01,-419.35 -1775.75,-1630.68 -54.06,-97.47 -103.35,-246.76 -172.4,-319.47 15.33,455.7 443.19,1055.91 666.91,1278.5 207.84,206.72 843.95,661.2 1281.24,671.65z"/>
  <path class="fil2" d="M10065.61 7781.09c-293.58,-5.82 -845.39,199.87 -1532.32,50.4 -512.64,-111.56 -772.6,-275.12 -1159.63,-491.58 90.16,253.64 799.82,586.25 1180.42,666.34 460.94,97 1190.98,12.86 1511.53,-225.16z"/>
  <path class="fil1" d="M7085.96 10479.22c67.14,89.37 127.94,67.45 165.64,187.79 -86.91,56.16 -114.96,13.36 -186.65,94.48 105.51,32.71 357.59,-13.39 331.75,398.64 -17.02,271.54 -367.29,-79.28 -279.14,465.82 78.35,-26.17 49.57,-66.81 137.37,-111.83 211.35,-108.39 327.76,141.33 327.81,-188.35 0.06,-272.84 -79.64,-792.35 -389.36,-859.75l-107.42 13.2z"/>
  <path class="fil1" d="M13430.83 10592.49c14.36,-75.49 13.8,-58.71 70.19,-106.7 81.89,-69.7 53.92,-12.5 97.19,-107.84 -429.08,27.53 -545.43,569.28 -546.02,1016.77 100.28,7.85 195.64,-20.15 290.4,13.86 114.24,41.03 76.18,107.2 149.86,144.74 191.7,-357.06 -168.69,-362.61 -236.8,-384.73 3.82,-583.33 204.92,-412.01 356.45,-501.3 -71.33,-42.86 -103.01,-42.34 -181.27,-74.8z"/>
  <path class="fil1" d="M12430.85 16331.12c292,-22.39 495.79,-559.43 299.29,-652.63 -147.26,-69.84 -285.51,96.47 -328.31,184.63 -85.22,175.37 -35.18,327.4 29.02,468z"/>
  <path class="fil1" d="M10971.11 9221.65l43.88 191.26c241.57,0.74 448.16,-105.18 812.24,12.5 84.16,27.19 141.1,76.26 227.27,84.11 -128.53,-246.84 -707.17,-480.93 -1083.39,-287.87z"/>
  <path class="fil1" d="M8310.12 9513.01c132.32,-59.74 225.11,-113.19 420.05,-125.39 189.1,-11.83 382.82,36.07 525.73,21.13l39.47 -162.95c-346.47,-154.72 -912.36,27.22 -985.25,267.21z"/>
  <path class="fil2" d="M11228.59 5730.69c-299.57,-8.12 -607.17,2.27 -784.85,-271.63 -48.87,-75.34 -51.34,-209.38 -93.17,-282.26 -70.28,69.99 -167,412.39 135.23,541.63 165.97,70.97 534.74,100.8 686.13,42.75 44.66,-17.13 29.88,-10.2 56.66,-30.49z"/>
  <path class="fil3" d="M12332.63 9340.33c5.94,-305.83 -123.8,-449.63 -134.37,-691.31 -7.65,-175.37 126,-608.98 100.44,-671.91 -51.95,78.21 -221.17,549.24 -237.58,674.76 -22.79,174.46 103.93,301.18 180.67,519.21 24.25,68.98 24.42,111.7 90.84,169.25z"/>
  <path class="fil3" d="M10304.94 13179.54c198.55,115.07 568.14,-113.97 659.21,-208.78 85.44,-88.96 302.31,-449.65 207.92,-635.42 -79.43,119.32 -72.05,337.02 -300.21,566.45 -181.75,182.8 -308.47,179.64 -566.92,277.75z"/>
  <path class="fil2" d="M7979.92 13248.98l-375.14 21.88c152.98,69.47 563.71,68.94 766.5,43.85 130.63,-16.19 219.14,-33.49 332.89,-63.7l236.03 -69.92c54.55,-32.99 37.81,-13 57.74,-73.05 -119.59,-82.39 -287.81,140.97 -1018.02,140.94z"/>
  <path class="fil2" d="M8236.41 13481.3c7.98,5.38 -11.09,23.51 117.43,36.59 149.76,15.25 754.85,-27.56 801.76,-198.6 -71.14,-86.33 -87.35,-46.47 -189.51,0.61 -62.68,28.88 -150.62,58.99 -223.64,78.95 -157.02,42.86 -396.95,44.97 -506.04,82.45z"/>
  <path class="fil4" d="M8608.11 10516.7c69.2,179.11 460.97,214.38 496.56,-127.08 -89.29,37.9 -32.79,3.27 -84.97,51.17 -221.14,203.15 -133.98,88.69 -411.59,75.91z"/>
  <path class="fil4" d="M8942.28 13602.58c99.08,31.83 388.72,-4.6 474.85,-126.44 -103.51,-57.55 -122.81,-36.07 -229.15,18.71 -88.13,45.38 -170.19,50.35 -245.7,107.73z"/>
  <path class="fil5" d="M11829.39 12942.51c28.33,27.28 9.81,25.23 68.03,41.56 26,7.29 71.66,9.37 98.14,4.02 95.56,-19.21 207.31,-182.83 243.57,-274.9l0.05 44.97 125.11 -328.62c-81.81,39.45 -94.61,163.37 -185.57,323.96 -13.17,23.23 -84.83,123.87 -109.25,147.79 -66.18,64.79 -127.89,45.55 -240.08,41.22z"/>
  <path class="fil5" d="M8636.11 10784.36c-63.12,-63.82 -184.08,-124.67 -280.63,-143.33 26.67,99.19 166.61,204.23 280.63,143.33z"/>
  <path class="fil1" d="M11661.09 10494.66c-277.61,12.78 -190.45,127.24 -411.6,-75.9 -52.17,-47.91 4.33,-13.28 -84.96,-51.18 35.59,341.46 427.36,306.19 496.56,127.08zm564.15 -34.49c-141.55,-56.38 -260.04,-216.2 -449.47,-213.63 0.56,607.04 -479.4,407.13 -499.69,406.94 -110.36,-1.05 17.02,-5.43 -89.27,35.43 -169.3,-156.58 -202.34,-272.82 -211.66,-280.05 -0.11,-0.11 -394.35,-60.91 -62.32,-271.4 623.7,-395.49 1231.1,31.32 1312.41,322.71z"/>
  <path class="fil4" d="M11661.09 10494.66c-69.2,179.11 -460.97,214.38 -496.56,-127.08 89.29,37.9 32.79,3.27 84.96,51.18 221.15,203.14 133.99,88.68 411.6,75.9z"/>
  <path class="fil5" d="M11633.09 10762.32c63.12,-63.82 184.07,-124.67 280.63,-143.33 -26.67,99.19 -166.61,204.23 -280.63,143.33z"/>
 </g>
</svg>
