<?xml version="1.0" encoding="UTF-8"?>
<!DOCTYPE svg PUBLIC "-//W3C//DTD SVG 1.1//EN" "http://www.w3.org/Graphics/SVG/1.1/DTD/svg11.dtd">
<!-- Creator: CorelDRAW 2017 -->
<svg xmlns="http://www.w3.org/2000/svg" xml:space="preserve" width="210mm" height="297mm" version="1.1" style="shape-rendering:geometricPrecision; text-rendering:geometricPrecision; image-rendering:optimizeQuality; fill-rule:evenodd; clip-rule:evenodd"
viewBox="0 0 21000 29700"
 xmlns:xlink="http://www.w3.org/1999/xlink">
 <defs>
  <style type="text/css">
   <![CDATA[
    .fil2 {fill:#202F36}
    .fil0 {fill:#49497B}
    .fil1 {fill:#DC5245}
   ]]>
  </style>
 </defs>
 <g id="Camada_x0020_1">
  <metadata id="CorelCorpID_0Corel-Layer"/>
  <path class="fil0" d="M8570.54 16599.86l640.09 -514.04c235.98,-200.25 502.33,-401.94 731.16,-598.03l364.73 -295.48c27.88,-24.87 62.19,-55.78 91.83,-77.42 33.56,-24.51 54.85,-43.36 89.64,-71.29 34.42,-27.64 55.21,-41.9 93.44,-76.18 109.58,-98.25 340.23,-269.33 453.8,-367.42 20.56,-17.76 28.34,-21.77 47.15,-37.39l135.68 -110.08c37.6,-33.35 52.46,-53.28 90.14,-78.96l186.76 -152.79 1.85 -1149.2 -93.88 67.26c-33.55,24.36 -57,47.09 -91.22,77.89 -98.44,88.58 -214.77,173.66 -319.4,256.84l-135.28 110.16c-34.2,25.2 -54.4,48.42 -89.85,79 -26.58,22.92 -63.12,47.27 -90.57,70.67 -30.07,25.63 -61.69,54.91 -91.32,77.83l-138.48 107.09c-16.44,11.8 -29.58,24.93 -45.75,39.1l-230.04 184.61c-16.73,13.11 -25.47,27.5 -42.63,41.77 -197.22,158.65 -402.47,317.73 -596.39,479.32 -92.96,77.47 -109.41,97.6 -228.55,186.44l-268.21 222.96c-19.63,17.45 -28.09,20.06 -48.97,35.6 -18.18,13.52 -25.88,24.75 -43.6,40.7l-277.89 221.9c-28.1,21.96 -67.17,59.61 -93.92,73.66 1.89,713.2 -0.7,185.7 -0.32,1155.48z"/>
  <path class="fil1" d="M11494.07 12442.36l-1096.55 -3.7c-17.97,41.11 -112.56,104.43 -146.87,132.04l-1614.47 1315.12c-25.85,20.91 -61.05,33.36 -65.42,80.34 -7.16,77.02 0.36,198.14 0.34,280.02 -0.01,93.13 0.26,186.28 -0.07,279.4 -0.66,186.46 -2.67,376.11 0.73,562.25 48.89,-22.34 749.67,-602.5 822.12,-664.45l276.78 -222.35c122.01,-102.76 241.89,-203.74 364.17,-296.82l1091.52 -889.52c58.76,-48.17 333.07,-279.56 368.7,-298.12l-0.98 -274.21z"/>
  <path class="fil1" d="M8571.5 17131.76l1211.5 1.8c19.89,-26.95 171.14,-143.96 212.23,-177.91l1297.41 -1056.73c37.94,-31.36 68.55,-54.67 107.83,-86.89 63.28,-51.88 95.45,-60.55 96.21,-109.58l-0.08 -1118.66c-42.95,16.16 -145.09,108.62 -188.87,144.5l-2005.06 1635.23c-121.33,101.53 -246.71,196.24 -364.57,296.14 -45.48,38.54 -359.6,284.51 -366.58,304.32l-0.02 167.78z"/>
  <path class="fil2" d="M8572.47 12443.22l1395.3 -5.34 429.75 0.78 1096.55 3.7 296.47 -1.3 1.54 -379.31 -536.33 0.5c-38.43,-66.85 -171.69,-198.56 -232.05,-249.91 -109.41,-93.08 -144.67,-130.26 -282.11,-208.75 -606.83,-346.61 -1297.13,-251.99 -1802.2,206.05 -47.09,42.7 -82.21,72.81 -125.12,120.77 -20.07,22.43 -34.99,36.98 -58.42,60.4 -27.34,27.35 -32.21,41.31 -51.89,71.57l-536.42 -0.08 -0.01 378.16 404.94 2.76z"/>
  <path class="fil2" d="M11254.83 17512.21l537.05 0.43 -1.03 -379.4 -292.96 -1.63c-202.69,13.76 -448.04,1.94 -655.57,1.94 -33.24,0 -593.82,-6.67 -624.94,3.59l-434.38 -3.58 -1211.5 -1.8 -404.11 1.68 2.22 378.74 534.83 -0.25c20.8,30.25 27.53,46.52 56.71,76.65 117.2,120.99 211.4,223.1 356.41,321.03 654.68,442.16 1792.2,172.88 2137.27,-397.4z"/>
  <path class="fil0" d="M8570.39 13580.73c40.76,-17.05 53.84,-38.48 88.68,-70l175.95 -137.03c28.97,-23.34 55.75,-53.36 85.44,-75.6 61.17,-45.83 111.93,-88.47 173.38,-140.07l350.35 -284.29c61.65,-49.76 115.86,-96.25 177.89,-144.13l260.27 -213.64c29.07,-24.36 60.77,-40.8 85.42,-78.09l-1395.3 5.34 -2.08 1137.51zm10.55 -1265.73c-97.57,29.58 -59.58,-109.56 8.79,-41.03l-8.79 41.03z"/>
  <path class="fil0" d="M10217.38 17137.14c31.12,-10.26 591.7,-3.59 624.94,-3.59 207.53,0 452.88,11.82 655.57,-1.94l-3.21 -1039.25c-32.97,15.15 -197.02,154.17 -244.53,195.59l-440.03 355.79c-130.84,124.55 -493.89,385.14 -592.74,493.4z"/>
  <path class="fil0" d="M8680.74 15773.45c-5.32,29.44 -5.68,32.52 1.7,57.16 46.86,15.89 68,-7.69 55.16,-55.71l-56.86 -1.45z"/>
  <path class="fil2" d="M8580.94 12315l8.79 -41.03c-68.37,-68.53 -106.36,70.61 -8.79,41.03z"/>
 </g>
</svg>
